<?xml version="1.0" encoding="UTF-8"?>
<svg id="Camada_2" data-name="Camada 2" xmlns="http://www.w3.org/2000/svg" viewBox="0 0 279.9 336">
  <g id="Camada_1-2" data-name="Camada 1">
    <path d="M279.58,196.42c-2.7,19.19-6.05,43.04-9,64.03-2.22,15.8-15.73,27.55-31.69,27.55h-83.54c-1,0-1.84.73-1.98,1.71-1.97,13.95-4.06,28.83-6.03,42.85-.28,1.97-1.97,3.44-3.96,3.44h-40.39c-2.43,0-4.3-2.14-3.96-4.55,5.38-38.29,10.85-77.2,16.22-115.45h48.47c-.45,3.19-1.31,9.36-2.09,14.89-.68,4.81,3.06,9.11,7.92,9.11h48.48c3.98,0,7.36-2.93,7.91-6.88.73-5.23,1.51-10.72,2.25-16.01.68-4.81-3.06-9.11-7.92-9.11H32.01c-19.44,0-34.4-17.2-31.69-36.45,3-21.32,6-42.73,8.99-64.02,2.22-15.79,15.73-27.53,31.68-27.53h86.43c3.98,0,7.36-2.93,7.91-6.87.74-5.23,1.51-10.72,2.25-16.02.68-4.81-3.06-9.11-7.92-9.11h-56.56c-3.99,0-7.37,2.94-7.92,6.89l-.16,1.11H17.53c-.51,0-.91-.45-.84-.96,1.24-8.88,2.55-18.2,3.86-27.5C22.77,11.75,36.28,0,52.23,0c28.65,0,73.46,0,105.04,0,19.44,0,34.39,17.2,31.69,36.45-5.41,38.51-10.86,77.22-16.24,115.55h-48.47c.45-3.19,1.31-9.36,2.09-14.89.68-4.81-3.06-9.11-7.92-9.11h-48.48c-3.98,0-7.36,2.93-7.91,6.88-.73,5.23-1.51,10.72-2.25,16.01-.68,4.81,3.06,9.11,7.92,9.11h180.22c19.43,0,34.37,17.18,31.66,36.42Z"/>
  </g>
</svg>